# xmcd
#
# Track frame offsets: 
#        150
#        10619
#        18865
#        29112
#        40681
#        54521
#        60294
#        67233
#        79395
#        89104
#        98274
#        109777
#        121837
#
# Disc length: 1751 seconds
#
# Revision: 0
# Processed by: cddbd v1.5.2PL0 Copyright (c) Steve Scherf et al.
# Submitted via: ExactAudioCopy v0.99pb5
#
DISCID=9f06d50d
DTITLE=Elvis Presley - Loving You
DYEAR=1957
DGENRE=A Cappella
TTITLE0=Mean Woman Blues
TTITLE1=(Let Me Be Your) Teddy Bear
TTITLE2=Loving You
TTITLE3=Got a Lot O' Livin' to Do!
TTITLE4=Lonesome Cowboy
TTITLE5=Hot Dog
TTITLE6=(Let's Have A) Party
TTITLE7=Blueberry Hill
TTITLE8=True Love
TTITLE9=Don't Leave Me Now
TTITLE10=Have I Told You Lately That I Love You
TTITLE11=I Need You So
TTITLE12=Tell Me Why
EXTD=
EXTT0=
EXTT1=
EXTT2=
EXTT3=
EXTT4=
EXTT5=
EXTT6=
EXTT7=
EXTT8=
EXTT9=
EXTT10=
EXTT11=
EXTT12=
PLAYORDER=
